<svg xmlns="http://www.w3.org/2000/svg" width="64" height="64" viewBox="0 0 64 64">
  <rect x="6" y="12" width="52" height="40" rx="10" fill="#ff5fa2"/>
  <g fill="#fff">
    <rect x="12" y="20" width="6" height="6" rx="1.5"/>
    <rect x="21" y="20" width="6" height="6" rx="1.5"/>
    <rect x="30" y="20" width="6" height="6" rx="1.5"/>
    <rect x="39" y="20" width="6" height="6" rx="1.5"/>
    <rect x="48" y="20" width="4" height="6" rx="1.5"/>
    <rect x="12" y="29" width="7" height="6" rx="1.5"/>
    <rect x="22" y="29" width="7" height="6" rx="1.5"/>
    <rect x="32" y="29" width="7" height="6" rx="1.5"/>
    <rect x="42" y="29" width="10" height="6" rx="1.5"/>
    <rect x="12" y="38" width="8" height="6" rx="1.5"/>
    <rect x="23" y="38" width="29" height="6" rx="3"/>
  </g>
</svg>
